<svg width="48" height="48" viewBox="0 0 48 48" fill="none" xmlns="http://www.w3.org/2000/svg" xmlns:xlink="http://www.w3.org/1999/xlink">
<mask id="mask_0_10_5277" style="mask-type:alpha" maskUnits="userSpaceOnUse" x="0" y="0" width="24" height="24">
<rect  x="0" y="0" width="48" height="48" fill="#D9D9D9"/>
</mask>
<g mask="url(#mask_0_10_5277)">
<path d="M11.7,34.2C13.4,32.9 15.3,31.875 17.4,31.125C19.5,30.375 21.7,30 24,30C26.3,30 28.5,30.375 30.6,31.125C32.7,31.875 34.6,32.9 36.3,34.2C37.467,32.833 38.375,31.283 39.025,29.55C39.675,27.817 40,25.967 40,24C40,19.567 38.442,15.792 35.325,12.675C32.208,9.558 28.433,8 24,8C19.567,8 15.792,9.558 12.675,12.675C9.558,15.792 8,19.567 8,24C8,25.967 8.325,27.817 8.975,29.55C9.625,31.283 10.533,32.833 11.7,34.2ZM24,26C22.033,26 20.375,25.325 19.025,23.975C17.675,22.625 17,20.967 17,19C17,17.033 17.675,15.375 19.025,14.025C20.375,12.675 22.033,12 24,12C25.967,12 27.625,12.675 28.975,14.025C30.325,15.375 31,17.033 31,19C31,20.967 30.325,22.625 28.975,23.975C27.625,25.325 25.967,26 24,26ZM24,44C21.233,44 18.633,43.475 16.2,42.425C13.767,41.375 11.65,39.95 9.85,38.15C8.05,36.35 6.625,34.233 5.575,31.8C4.525,29.367 4,26.767 4,24C4,21.233 4.525,18.633 5.575,16.2C6.625,13.767 8.05,11.65 9.85,9.85C11.65,8.05 13.767,6.625 16.2,5.575C18.633,4.525 21.233,4 24,4C26.767,4 29.367,4.525 31.8,5.575C34.233,6.625 36.35,8.05 38.15,9.85C39.95,11.65 41.375,13.767 42.425,16.2C43.475,18.633 44,21.233 44,24C44,26.767 43.475,29.367 42.425,31.8C41.375,34.233 39.95,36.35 38.15,38.15C36.35,39.95 34.233,41.375 31.8,42.425C29.367,43.475 26.767,44 24,44ZM24,40C25.767,40 27.433,39.742 29,39.225C30.567,38.708 32,37.967 33.3,37C32,36.033 30.567,35.292 29,34.775C27.433,34.258 25.767,34 24,34C22.233,34 20.567,34.258 19,34.775C17.433,35.292 16,36.033 14.7,37C16,37.967 17.433,38.708 19,39.225C20.567,39.742 22.233,40 24,40ZM24,22C24.867,22 25.583,21.717 26.15,21.15C26.717,20.583 27,19.867 27,19C27,18.133 26.717,17.417 26.15,16.85C25.583,16.283 24.867,16 24,16C23.133,16 22.417,16.283 21.85,16.85C21.283,17.417 21,18.133 21,19C21,19.867 21.283,20.583 21.85,21.15C22.417,21.717 23.133,22 24,22Z" fill="#FFFFFF"/>
</g>
</svg>
