<svg width="56" height="56" viewBox="0 0 56 56" fill="none" xmlns="http://www.w3.org/2000/svg" xmlns:xlink="http://www.w3.org/1999/xlink">
<mask id="mask_0_1_177" style="mask-type:alpha" maskUnits="userSpaceOnUse" x="0" y="0" width="28" height="28">
<rect  x="0" y="0" width="56" height="56" fill="#D9D9D9"/>
</mask>
<g mask="url(#mask_0_1_177)">
<path d="M25.667,39.667L30.333,39.667L30.333,30.333L39.667,30.333L39.667,25.667L30.333,25.667L30.333,16.333L25.667,16.333L25.667,25.667L16.333,25.667L16.333,30.333L25.667,30.333L25.667,39.667ZM28,51.333C24.772,51.333 21.739,50.721 18.9,49.496C16.061,48.271 13.592,46.608 11.492,44.508C9.392,42.408 7.729,39.939 6.504,37.1C5.279,34.261 4.667,31.228 4.667,28C4.667,24.772 5.279,21.739 6.504,18.9C7.729,16.061 9.392,13.592 11.492,11.492C13.592,9.392 16.061,7.729 18.9,6.504C21.739,5.279 24.772,4.667 28,4.667C31.228,4.667 34.261,5.279 37.1,6.504C39.939,7.729 42.408,9.392 44.508,11.492C46.608,13.592 48.271,16.061 49.496,18.9C50.721,21.739 51.333,24.772 51.333,28C51.333,31.228 50.721,34.261 49.496,37.1C48.271,39.939 46.608,42.408 44.508,44.508C42.408,46.608 39.939,48.271 37.1,49.496C34.261,50.721 31.228,51.333 28,51.333ZM28,46.667C33.211,46.667 37.625,44.858 41.242,41.242C44.858,37.625 46.667,33.211 46.667,28C46.667,22.789 44.858,18.375 41.242,14.758C37.625,11.142 33.211,9.333 28,9.333C22.789,9.333 18.375,11.142 14.758,14.758C11.142,18.375 9.333,22.789 9.333,28C9.333,33.211 11.142,37.625 14.758,41.242C18.375,44.858 22.789,46.667 28,46.667Z" fill="#FFFFFF"/>
</g>
</svg>
