<svg width="284" height="338" viewBox="0 0 284 338" fill="none" xmlns="http://www.w3.org/2000/svg" xmlns:xlink="http://www.w3.org/1999/xlink">
<path d="M127.625,8.439L132.975,3.435C131.59,1.954 129.653,1.114 127.625,1.114C125.598,1.114 123.661,1.954 122.276,3.435L127.625,8.439ZM193.099,67.706L132.975,3.435L122.276,13.443L182.4,77.714L193.099,67.706ZM122.276,3.435L62.151,67.706L72.85,77.714L132.975,13.443L122.276,3.435ZM120.3,8.439L120.3,265.523L134.951,265.523L134.951,8.439L120.3,8.439Z" transform="rotate(78.541 127.625 136.981)" fill="#FFFFFF"/>
<path d="M214.298,79.306L219.478,74.126C216.617,71.266 211.979,71.266 209.118,74.126L214.298,79.306ZM283.749,138.397L219.478,74.126L209.118,84.486L273.389,148.757L283.749,138.397ZM209.118,74.126L144.847,138.397L155.206,148.757L219.478,84.486L209.118,74.126ZM206.972,79.306L206.972,336.39L221.623,336.39L221.623,79.306L206.972,79.306Z" transform="rotate(78.541 214.298 207.848)" fill="#FFFFFF"/>
</svg>
