<svg width="286" height="344" viewBox="0 0 286 344" fill="none" xmlns="http://www.w3.org/2000/svg" xmlns:xlink="http://www.w3.org/1999/xlink">
<path d="M128.54,77.326L133.89,72.322C132.505,70.841 130.568,70.001 128.54,70.001C126.513,70.001 124.576,70.841 123.191,72.322L128.54,77.326ZM194.014,136.593L133.89,72.322L123.191,82.331L183.315,146.602L194.014,136.593ZM123.191,72.322L63.066,136.593L73.765,146.602L133.89,82.331L123.191,72.322ZM121.215,77.326L121.215,334.41L135.866,334.41L135.866,77.326L121.215,77.326Z" transform="rotate(-78.541 128.54 205.869)" fill="#FFFFFF"/>
<path d="M215.213,6.459L220.393,1.279C217.532,-1.581 212.894,-1.581 210.033,1.279L215.213,6.459ZM284.664,65.55L220.393,1.279L210.033,11.639L274.304,75.91L284.664,65.55ZM210.033,1.279L145.762,65.55L156.121,75.91L220.393,11.639L210.033,1.279ZM207.887,6.459L207.887,263.543L222.538,263.543L222.538,6.459L207.887,6.459Z" transform="rotate(-78.541 215.213 135.001)" fill="#FFFFFF"/>
</svg>
