<svg width="864" height="854" viewBox="0 0 864 854" fill="none" xmlns="http://www.w3.org/2000/svg" xmlns:xlink="http://www.w3.org/1999/xlink">
<path d="M392.5,-0.5C391.395,-0.5 390.5,0.395 390.5,1.5C390.5,2.605 391.395,3.5 392.5,3.5L392.5,-0.5ZM392.5,3.5L464.5,3.5L464.5,-0.5L392.5,-0.5L392.5,3.5ZM482.5,21.5L482.5,830.5L486.5,830.5L486.5,21.5L482.5,21.5ZM464.5,848.5L392.5,848.5L392.5,852.5L464.5,852.5L464.5,848.5ZM482.5,830.5C482.5,840.442 474.441,848.5 464.5,848.5L464.5,852.5C476.65,852.5 486.5,842.65 486.5,830.5L482.5,830.5ZM464.5,3.5C474.441,3.5 482.5,11.559 482.5,21.5L486.5,21.5C486.5,9.35 476.65,-0.5 464.5,-0.5L464.5,3.5Z" transform="rotate(180 438.5 426)" fill="#D9D9D9"/>
<path d="M10.536,380C12.075,377.333 15.925,377.333 17.464,380L27.856,398C29.396,400.667 27.472,404 24.392,404L3.608,404C0.528,404 -1.396,400.667 0.144,398L10.536,380Z" transform="rotate(0 14 394)" fill="#D9D9D9"/>
</svg>
