<svg width="380" height="502" viewBox="0 0 380 502" fill="none" xmlns="http://www.w3.org/2000/svg" xmlns:xlink="http://www.w3.org/1999/xlink">
<path d="M189.341,121.806L195.206,117.417C193.823,115.569 191.649,114.481 189.341,114.481C187.033,114.481 184.859,115.569 183.476,117.417L189.341,121.806ZM266.018,212.036L195.206,117.417L183.476,126.195L254.288,220.815L266.018,212.036ZM183.476,117.417L112.664,212.036L124.394,220.815L195.206,126.195L183.476,117.417ZM182.016,121.806L182.016,500.284L196.666,500.284L196.666,121.806L182.016,121.806Z" transform="rotate(-180 189.341 311.045)" fill="#FFFFFF"/>
<path d="M189.341,7.044L195.061,2.468C193.671,0.73 191.566,-0.281 189.341,-0.281C187.115,-0.281 185.011,0.73 183.621,2.468L189.341,7.044ZM270.756,97.087L195.061,2.468L183.621,11.62L259.316,106.24L270.756,97.087ZM183.621,2.468L107.925,97.087L119.365,106.24L195.061,11.62L183.621,2.468ZM182.015,7.044L182.015,385.522L196.666,385.522L196.666,7.044L182.015,7.044Z" transform="rotate(-180 189.341 196.283)" fill="#FFFFFF"/>
</svg>
