<svg width="40" height="40" viewBox="0 0 40 40" fill="none" xmlns="http://www.w3.org/2000/svg" xmlns:xlink="http://www.w3.org/1999/xlink">
<path d="M16.536,6C18.075,3.333 21.925,3.333 23.464,6L33.856,24C35.396,26.667 33.472,30 30.392,30L9.608,30C6.528,30 4.604,26.667 6.144,24L16.536,6Z" transform="rotate(180 20 20)" fill="#D9D9D9"/>
<path d="M16.536,6C18.075,3.333 21.925,3.333 23.464,6L33.856,24C35.396,26.667 33.472,30 30.392,30L9.608,30C6.528,30 4.604,26.667 6.144,24L16.536,6Z" transform="rotate(180 20 20)" fill="#D9D9D9"/>
</svg>
