<svg width="1266" height="300" viewBox="0 0 1266 300" fill="none" xmlns="http://www.w3.org/2000/svg" xmlns:xlink="http://www.w3.org/1999/xlink">
<path d="M126.516,295.488L63.803,209.166L63.803,295.488L0.721,295.488L0.721,42.997L63.803,22.503L63.803,173.383L126.147,89.643L203.985,89.643L118.4,192.935L204.723,295.488L126.516,295.488Z" fill="url(#pf_0_3_18)"/>
<path d="M257.925,68.246C246.859,68.246 237.759,65.049 230.627,58.655C223.741,52.015 220.297,43.899 220.297,34.308C220.297,24.47 223.741,16.355 230.627,9.96C237.759,3.32 246.859,0 257.925,0C268.747,0 277.599,3.32 284.487,9.96C291.619,16.355 295.185,24.47 295.185,34.308C295.185,43.899 291.619,52.015 284.487,58.655C277.599,65.049 268.747,68.246 257.925,68.246ZM289.281,89.643L289.281,295.488L226.199,295.488L226.199,110.137L289.281,89.643Z" fill="url(#pf_0_3_18)"/>
<path d="M426.135,298.44C405.969,298.44 387.769,294.136 371.539,285.528C355.553,276.92 342.887,264.624 333.541,248.638C324.441,232.652 319.893,213.962 319.893,192.566C319.893,171.416 324.565,152.848 333.911,136.862C343.255,120.63 356.045,108.211 372.277,99.603C388.507,90.995 406.707,86.692 426.873,86.692C447.039,86.692 465.239,90.995 481.471,99.603C497.703,108.211 510.491,120.63 519.837,136.862C529.181,152.848 533.855,171.416 533.855,192.566C533.855,213.716 529.059,232.408 519.467,248.638C510.121,264.624 497.211,276.92 480.733,285.528C464.501,294.136 446.301,298.44 426.135,298.44ZM426.135,243.842C438.187,243.842 448.393,239.416 456.755,230.562C465.361,221.708 469.665,209.044 469.665,192.566C469.665,176.088 465.485,163.423 457.123,154.569C449.007,145.716 438.923,141.289 426.873,141.289C414.577,141.289 404.371,145.716 396.255,154.569C388.139,163.177 384.081,175.842 384.081,192.566C384.081,209.044 388.015,221.708 395.885,230.562C404.001,239.416 414.085,243.842 426.135,243.842Z" fill="url(#pf_0_3_18)"/>
<path d="M674.363,241.998L694.857,295.488L642.269,295.488C619.397,295.488 601.567,289.956 588.779,278.888C575.989,267.576 569.595,249.254 569.595,223.922L569.595,142.027L544.511,142.027L544.511,89.643L569.595,89.643L569.595,54.843L632.677,39.472L632.677,89.643L673.995,89.643L673.995,142.027L632.677,142.027L632.677,224.66C632.677,230.808 634.153,235.236 637.103,237.94C640.055,240.646 644.973,241.998 651.859,241.998L674.363,241.998Z" fill="url(#pf_0_3_18)"/>
<path d="M694.397,192.197C694.397,171.047 698.331,152.479 706.201,136.493C714.317,120.507 725.261,108.211 739.033,99.603C752.805,90.995 768.177,86.692 785.145,86.692C799.655,86.692 812.321,89.643 823.143,95.545C834.209,101.448 842.693,109.194 848.597,118.786L848.597,105.014L911.679,89.643L911.679,295.488L848.597,295.488L848.597,266.346C842.449,275.938 833.841,283.684 822.773,289.586C811.953,295.488 799.287,298.44 784.777,298.44C768.053,298.44 752.805,294.136 739.033,285.528C725.261,276.676 714.317,264.256 706.201,248.27C698.331,232.038 694.397,213.348 694.397,192.197ZM848.597,192.566C848.597,176.826 844.169,164.406 835.315,155.307C826.709,146.207 816.133,141.658 803.591,141.658C791.047,141.658 780.349,146.207 771.497,155.307C762.889,164.161 758.585,176.457 758.585,192.197C758.585,207.936 762.889,220.48 771.497,229.824C780.349,238.924 791.047,243.474 803.591,243.474C816.133,243.474 826.709,238.924 835.315,229.824C844.169,220.726 848.597,208.306 848.597,192.566Z" fill="url(#pf_0_3_18)"/>
<path d="M1017.835,22.503L1017.835,295.488L954.753,295.488L954.753,42.997L1017.835,22.503Z" fill="url(#pf_0_3_18)"/>
<path d="M1186.783,295.488L1124.071,209.166L1124.071,295.488L1060.989,295.488L1060.989,42.997L1124.071,22.503L1124.071,173.383L1186.415,89.643L1264.253,89.643L1178.667,192.935L1264.991,295.488L1186.783,295.488Z" fill="url(#pf_0_3_18)"/>
<defs>
<linearGradient id="pf_0_3_18" x1="0" y1="0" x2="1264" y2="298" gradientUnits="userSpaceOnUse">
<stop stop-color="#FBFBF9"/>
<stop offset="0.7" stop-color="#B2B2B2"/>
<stop offset="1" stop-color="#DEDEDE"/>
</linearGradient>
<linearGradient id="pf_0_3_18" x1="0" y1="0" x2="1264" y2="298" gradientUnits="userSpaceOnUse">
<stop stop-color="#FBFBF9"/>
<stop offset="0.7" stop-color="#B2B2B2"/>
<stop offset="1" stop-color="#DEDEDE"/>
</linearGradient>
<linearGradient id="pf_0_3_18" x1="0" y1="0" x2="1264" y2="298" gradientUnits="userSpaceOnUse">
<stop stop-color="#FBFBF9"/>
<stop offset="0.7" stop-color="#B2B2B2"/>
<stop offset="1" stop-color="#DEDEDE"/>
</linearGradient>
<linearGradient id="pf_0_3_18" x1="0" y1="0" x2="1264" y2="298" gradientUnits="userSpaceOnUse">
<stop stop-color="#FBFBF9"/>
<stop offset="0.7" stop-color="#B2B2B2"/>
<stop offset="1" stop-color="#DEDEDE"/>
</linearGradient>
<linearGradient id="pf_0_3_18" x1="0" y1="0" x2="1264" y2="298" gradientUnits="userSpaceOnUse">
<stop stop-color="#FBFBF9"/>
<stop offset="0.7" stop-color="#B2B2B2"/>
<stop offset="1" stop-color="#DEDEDE"/>
</linearGradient>
<linearGradient id="pf_0_3_18" x1="0" y1="0" x2="1264" y2="298" gradientUnits="userSpaceOnUse">
<stop stop-color="#FBFBF9"/>
<stop offset="0.7" stop-color="#B2B2B2"/>
<stop offset="1" stop-color="#DEDEDE"/>
</linearGradient>
<linearGradient id="pf_0_3_18" x1="0" y1="0" x2="1264" y2="298" gradientUnits="userSpaceOnUse">
<stop stop-color="#FBFBF9"/>
<stop offset="0.7" stop-color="#B2B2B2"/>
<stop offset="1" stop-color="#DEDEDE"/>
</linearGradient>
</defs>
</svg>
