<svg width="580" height="138" viewBox="0 0 580 138" fill="none" xmlns="http://www.w3.org/2000/svg" xmlns:xlink="http://www.w3.org/1999/xlink">
<path d="M56.985,135.491L28.23,95.909L28.23,135.491L-0.695,135.491L-0.695,19.716L28.23,10.319L28.23,79.502L56.816,41.104L92.507,41.104L53.264,88.467L92.846,135.491L56.985,135.491Z" fill="url(#pf_0_3_417)"/>
<path d="M117.241,31.293C112.166,31.293 107.994,29.827 104.723,26.895C101.566,23.851 99.987,20.129 99.987,15.731C99.987,11.221 101.566,7.499 104.723,4.567C107.994,1.523 112.166,0 117.241,0C122.202,0 126.262,1.523 129.42,4.567C132.69,7.499 134.325,11.221 134.325,15.731C134.325,20.129 132.69,23.851 129.42,26.895C126.262,29.827 122.202,31.293 117.241,31.293ZM131.619,41.104L131.619,135.491L102.694,135.491L102.694,50.501L131.619,41.104Z" fill="url(#pf_0_3_417)"/>
<path d="M194.37,136.844C185.123,136.844 176.778,134.871 169.336,130.924C162.006,126.977 156.198,121.339 151.913,114.009C147.741,106.679 145.654,98.108 145.654,88.298C145.654,78.6 147.797,70.086 152.082,62.756C156.367,55.313 162.231,49.618 169.674,45.671C177.117,41.724 185.462,39.751 194.709,39.751C203.955,39.751 212.301,41.724 219.743,45.671C227.187,49.618 233.051,55.313 237.335,62.756C241.621,70.086 243.763,78.6 243.763,88.298C243.763,97.996 241.563,106.566 237.167,114.009C232.881,121.339 226.961,126.977 219.405,130.924C211.963,134.871 203.617,136.844 194.37,136.844ZM194.37,111.81C199.897,111.81 204.577,109.78 208.411,105.72C212.357,101.661 214.331,95.853 214.331,88.298C214.331,80.742 212.413,74.935 208.579,70.875C204.859,66.815 200.235,64.785 194.709,64.785C189.07,64.785 184.39,66.815 180.669,70.875C176.948,74.822 175.087,80.629 175.087,88.298C175.087,95.853 176.891,101.661 180.5,105.72C184.221,109.78 188.845,111.81 194.37,111.81Z" fill="url(#pf_0_3_417)"/>
<path d="M308.191,110.964L317.587,135.491L293.475,135.491C282.987,135.491 274.811,132.954 268.947,127.879C263.083,122.692 260.151,114.291 260.151,102.675L260.151,65.124L248.649,65.124L248.649,41.104L260.151,41.104L260.151,25.147L289.077,18.1L289.077,41.104L308.021,41.104L308.021,65.124L289.077,65.124L289.077,103.014C289.077,105.833 289.753,107.863 291.107,109.103C292.459,110.344 294.715,110.964 297.873,110.964L308.191,110.964Z" fill="url(#pf_0_3_417)"/>
<path d="M317.377,88.128C317.377,78.43 319.181,69.916 322.789,62.586C326.511,55.257 331.529,49.618 337.843,45.671C344.159,41.724 351.207,39.751 358.987,39.751C365.641,39.751 371.449,41.104 376.411,43.811C381.485,46.517 385.375,50.069 388.081,54.467L388.081,48.152L417.007,41.104L417.007,135.491L388.081,135.491L388.081,122.128C385.263,126.526 381.315,130.078 376.241,132.785C371.279,135.491 365.471,136.844 358.819,136.844C351.151,136.844 344.159,134.871 337.843,130.924C331.529,126.864 326.511,121.169 322.789,113.84C319.181,106.397 317.377,97.826 317.377,88.128ZM388.081,88.298C388.081,81.08 386.053,75.386 381.993,71.213C378.045,67.041 373.197,64.955 367.445,64.955C361.695,64.955 356.789,67.041 352.729,71.213C348.783,75.273 346.809,80.911 346.809,88.128C346.809,95.346 348.783,101.097 352.729,105.382C356.789,109.554 361.695,111.641 367.445,111.641C373.197,111.641 378.045,109.554 381.993,105.382C386.053,101.209 388.081,95.515 388.081,88.298Z" fill="url(#pf_0_3_417)"/>
<path d="M465.683,10.319L465.683,135.491L436.759,135.491L436.759,19.716L465.683,10.319Z" fill="url(#pf_0_3_417)"/>
<path d="M543.151,135.491L514.395,95.909L514.395,135.491L485.471,135.491L485.471,19.716L514.395,10.319L514.395,79.502L542.981,41.104L578.673,41.104L539.429,88.467L579.011,135.491L543.151,135.491Z" fill="url(#pf_0_3_417)"/>
<defs>
<linearGradient id="pf_0_3_417" x1="-1.026" y1="0" x2="578.557" y2="136.642" gradientUnits="userSpaceOnUse">
<stop stop-color="#FBFBF9"/>
<stop offset="0.7" stop-color="#B2B2B2"/>
<stop offset="1" stop-color="#DEDEDE"/>
</linearGradient>
<linearGradient id="pf_0_3_417" x1="-1.026" y1="0" x2="578.557" y2="136.642" gradientUnits="userSpaceOnUse">
<stop stop-color="#FBFBF9"/>
<stop offset="0.7" stop-color="#B2B2B2"/>
<stop offset="1" stop-color="#DEDEDE"/>
</linearGradient>
<linearGradient id="pf_0_3_417" x1="-1.026" y1="0" x2="578.557" y2="136.642" gradientUnits="userSpaceOnUse">
<stop stop-color="#FBFBF9"/>
<stop offset="0.7" stop-color="#B2B2B2"/>
<stop offset="1" stop-color="#DEDEDE"/>
</linearGradient>
<linearGradient id="pf_0_3_417" x1="-1.026" y1="0" x2="578.557" y2="136.642" gradientUnits="userSpaceOnUse">
<stop stop-color="#FBFBF9"/>
<stop offset="0.7" stop-color="#B2B2B2"/>
<stop offset="1" stop-color="#DEDEDE"/>
</linearGradient>
<linearGradient id="pf_0_3_417" x1="-1.026" y1="0" x2="578.557" y2="136.642" gradientUnits="userSpaceOnUse">
<stop stop-color="#FBFBF9"/>
<stop offset="0.7" stop-color="#B2B2B2"/>
<stop offset="1" stop-color="#DEDEDE"/>
</linearGradient>
<linearGradient id="pf_0_3_417" x1="-1.026" y1="0" x2="578.557" y2="136.642" gradientUnits="userSpaceOnUse">
<stop stop-color="#FBFBF9"/>
<stop offset="0.7" stop-color="#B2B2B2"/>
<stop offset="1" stop-color="#DEDEDE"/>
</linearGradient>
<linearGradient id="pf_0_3_417" x1="-1.026" y1="0" x2="578.557" y2="136.642" gradientUnits="userSpaceOnUse">
<stop stop-color="#FBFBF9"/>
<stop offset="0.7" stop-color="#B2B2B2"/>
<stop offset="1" stop-color="#DEDEDE"/>
</linearGradient>
</defs>
</svg>
