<svg width="48" height="48" viewBox="0 0 48 48" fill="none" xmlns="http://www.w3.org/2000/svg" xmlns:xlink="http://www.w3.org/1999/xlink">
<mask id="mask_0_1_146" style="mask-type:alpha" maskUnits="userSpaceOnUse" x="0" y="0" width="24" height="24">
<rect  x="0" y="0" width="48" height="48" fill="#D9D9D9"/>
</mask>
<g mask="url(#mask_0_1_146)">
<path d="M36,42L14,42L14,16L28,2L30.5,4.5C30.733,4.733 30.925,5.05 31.075,5.45C31.225,5.85 31.3,6.233 31.3,6.6L31.3,7.3L29.1,16L42,16C43.067,16 44,16.4 44.8,17.2C45.6,18 46,18.933 46,20L46,24C46,24.233 45.967,24.483 45.9,24.75C45.833,25.017 45.767,25.267 45.7,25.5L39.7,39.6C39.4,40.267 38.9,40.833 38.2,41.3C37.5,41.767 36.767,42 36,42ZM18,38L36,38L42,24L42,20L24,20L26.7,9L18,17.7L18,38ZM14,16L14,20L8,20L8,38L14,38L14,42L4,42L4,16L14,16Z" fill="#FFFFFF"/>
</g>
</svg>
