<svg width="356" height="148" viewBox="0 0 356 148" fill="none" xmlns="http://www.w3.org/2000/svg" xmlns:xlink="http://www.w3.org/1999/xlink">
<path d="M6.801,8.409L6.801,1.083C4.858,1.083 2.995,1.855 1.621,3.229C0.247,4.603 -0.525,6.466 -0.525,8.409L6.801,8.409ZM14.126,146.537L14.126,8.409L-0.525,8.409L-0.525,146.537L14.126,146.537ZM6.801,15.734L144.929,15.734L144.929,1.083L6.801,1.083L6.801,15.734ZM6.801,8.409C0.642,12.376 0.644,12.378 0.646,12.381C0.647,12.382 0.649,12.386 0.651,12.388C0.654,12.394 0.659,12.402 0.665,12.411C0.677,12.43 0.694,12.456 0.715,12.488C0.757,12.553 0.817,12.644 0.894,12.762C1.049,12.997 1.275,13.337 1.569,13.775C2.158,14.651 3.024,15.917 4.154,17.518C6.413,20.72 9.732,25.265 14.017,30.708C22.578,41.581 35.04,56.091 50.644,70.625C81.633,99.487 126.103,129.445 177.726,129.445L177.726,114.794C131.677,114.794 90.684,87.896 60.629,59.904C45.711,46.009 33.754,32.092 25.528,21.644C21.419,16.426 18.253,12.088 16.125,9.072C15.06,7.564 14.257,6.387 13.725,5.596C13.459,5.201 13.261,4.903 13.133,4.708C13.069,4.611 13.022,4.539 12.993,4.495C12.979,4.472 12.968,4.457 12.963,4.448C12.96,4.443 12.958,4.441 12.957,4.44C12.957,4.439 12.957,4.44 12.957,4.439C12.958,4.44 12.959,4.442 6.801,8.409ZM177.726,129.445C261.133,129.445 306.141,97.967 330.049,65.41C341.875,49.304 348.331,33.216 351.837,21.15C353.593,15.11 354.615,10.05 355.203,6.46C355.497,4.663 355.683,3.231 355.797,2.224C355.853,1.72 355.893,1.322 355.919,1.037C355.931,0.895 355.941,0.781 355.947,0.697C355.951,0.654 355.953,0.619 355.955,0.592C355.957,0.578 355.957,0.566 355.959,0.556C355.959,0.551 355.959,0.545 355.959,0.542C355.959,0.537 355.959,0.531 348.651,0.03C341.343,-0.472 341.343,-0.476 341.345,-0.48C341.345,-0.48 341.345,-0.484 341.345,-0.485C341.345,-0.488 341.345,-0.489 341.345,-0.488C341.345,-0.486 341.343,-0.476 341.343,-0.46C341.339,-0.427 341.335,-0.366 341.327,-0.277C341.311,-0.1 341.283,0.188 341.239,0.578C341.151,1.36 340.997,2.55 340.745,4.092C340.239,7.178 339.339,11.657 337.769,17.063C334.623,27.889 328.825,42.323 318.239,56.739C297.321,85.227 256.867,114.794 177.726,114.794L177.726,129.445Z" transform="rotate(360 177.726 73.284)" fill="#FFFFFF"/>
</svg>
