<svg width="40" height="38" viewBox="0 0 40 38" fill="none" xmlns="http://www.w3.org/2000/svg" xmlns:xlink="http://www.w3.org/1999/xlink">
<g opacity="0.8">
<path d="M29.083,16.417C29.083,22.308 24.308,27.083 18.417,27.083L18.417,31.083C26.517,31.083 33.083,24.517 33.083,16.417L29.083,16.417ZM18.417,27.083C12.526,27.083 7.75,22.308 7.75,16.417L3.75,16.417C3.75,24.517 10.316,31.083 18.417,31.083L18.417,27.083ZM7.75,16.417C7.75,10.526 12.526,5.75 18.417,5.75L18.417,1.75C10.316,1.75 3.75,8.316 3.75,16.417L7.75,16.417ZM18.417,5.75C24.308,5.75 29.083,10.526 29.083,16.417L33.083,16.417C33.083,8.316 26.517,1.75 18.417,1.75L18.417,5.75Z" fill="#868686"/>
<path d="M32.836,33.664L34.25,35.078L37.078,32.25L35.664,30.836L32.836,33.664ZM28.777,23.948L27.363,22.534L24.534,25.362L25.948,26.777L28.777,23.948ZM35.664,30.836L28.777,23.948L25.948,26.777L32.836,33.664L35.664,30.836Z" fill="#868686"/>
</g>
</svg>
