<svg width="38" height="38" viewBox="0 0 38 38" fill="none" xmlns="http://www.w3.org/2000/svg" xmlns:xlink="http://www.w3.org/1999/xlink">
<g opacity="0.8">
<path d="M28.083,17.417C28.083,23.308 23.308,28.083 17.417,28.083L17.417,32.083C25.517,32.083 32.083,25.517 32.083,17.417L28.083,17.417ZM17.417,28.083C11.526,28.083 6.75,23.308 6.75,17.417L2.75,17.417C2.75,25.517 9.316,32.083 17.417,32.083L17.417,28.083ZM6.75,17.417C6.75,11.526 11.526,6.75 17.417,6.75L17.417,2.75C9.316,2.75 2.75,9.316 2.75,17.417L6.75,17.417ZM17.417,6.75C23.308,6.75 28.083,11.526 28.083,17.417L32.083,17.417C32.083,9.316 25.517,2.75 17.417,2.75L17.417,6.75Z" fill="#FFFFFF"/>
<path d="M31.836,34.664L33.25,36.078L36.078,33.25L34.664,31.836L31.836,34.664ZM27.777,24.948L26.363,23.534L23.534,26.363L24.948,27.777L27.777,24.948ZM34.664,31.836L27.777,24.948L24.948,27.777L31.836,34.664L34.664,31.836Z" fill="#FFFFFF"/>
</g>
</svg>
