<svg width="56" height="26" viewBox="0 0 56 26" fill="none" xmlns="http://www.w3.org/2000/svg" xmlns:xlink="http://www.w3.org/1999/xlink">
<path d="M37.024,-0.006L12.949,-0.006C11.117,-0.006 9.691,-0.006 8.541,0.073C7.375,0.152 6.42,0.316 5.543,0.679C3.337,1.593 1.585,3.345 0.672,5.55C0.308,6.427 0.145,7.382 0.065,8.549C-0.013,9.699 -0.013,11.125 -0.013,12.956L-0.013,13.032C-0.013,14.864 -0.013,16.29 0.065,17.44C0.145,18.606 0.308,19.561 0.672,20.439C1.585,22.644 3.337,24.396 5.543,25.309C6.42,25.673 7.375,25.836 8.541,25.916C9.691,25.994 11.117,25.994 12.949,25.994L37.024,25.994C38.856,25.994 40.282,25.994 41.432,25.916C42.598,25.836 43.554,25.673 44.431,25.309C46.636,24.396 48.388,22.644 49.302,20.439C49.665,19.561 49.829,18.606 49.908,17.44C49.987,16.29 49.987,14.864 49.987,13.032L49.987,12.957C49.987,11.125 49.987,9.699 49.908,8.549C49.829,7.382 49.665,6.427 49.302,5.55C48.388,3.345 46.636,1.593 44.431,0.679C43.554,0.316 42.598,0.152 41.432,0.073C40.282,-0.006 38.856,-0.006 37.024,-0.006ZM6.308,2.527C6.901,2.282 7.613,2.141 8.677,2.068C9.751,1.995 11.109,1.994 12.987,1.994L36.987,1.994C38.864,1.994 40.222,1.995 41.296,2.068C42.361,2.141 43.072,2.282 43.665,2.527C45.381,3.238 46.743,4.6 47.454,6.316C47.699,6.908 47.84,7.62 47.913,8.685C47.986,9.759 47.987,11.117 47.987,12.994C47.987,14.872 47.986,16.23 47.913,17.303C47.84,18.368 47.699,19.08 47.454,19.673C46.743,21.388 45.381,22.751 43.665,23.462C43.072,23.707 42.361,23.848 41.296,23.921C40.222,23.994 38.864,23.994 36.987,23.994L12.987,23.994C11.109,23.994 9.751,23.994 8.677,23.921C7.613,23.848 6.901,23.707 6.308,23.462C4.593,22.751 3.23,21.388 2.52,19.673C2.274,19.08 2.133,18.368 2.06,17.303C1.987,16.23 1.987,14.872 1.987,12.994C1.987,11.117 1.987,9.759 2.06,8.685C2.133,7.62 2.274,6.908 2.52,6.316C3.23,4.6 4.593,3.238 6.308,2.527Z" clip-rule="evenodd" fill-rule="evenodd" fill="#FFFFFF" fill-opacity="0.4"/>
<path d="M51.987,8.993C53.553,9.646 54.653,11.191 54.653,12.994C54.653,14.797 53.553,16.342 51.987,16.995L51.987,8.993Z" fill="#FFFFFF" fill-opacity="0.4"/>
</svg>
