<svg width="40" height="26" viewBox="0 0 40 26" fill="none" xmlns="http://www.w3.org/2000/svg" xmlns:xlink="http://www.w3.org/1999/xlink">
<path d="M34,0.66C32.895,0.66 32,1.556 32,2.66L32,23.327C32,24.432 32.895,25.327 34,25.327L36.667,25.327C37.771,25.327 38.667,24.432 38.667,23.327L38.667,2.66C38.667,1.556 37.771,0.66 36.667,0.66L34,0.66Z" fill="#FFFFFF"/>
<path d="M21.333,7.994C21.333,6.889 22.229,5.994 23.333,5.994L26,5.994C27.105,5.994 28,6.889 28,7.994L28,23.327C28,24.432 27.105,25.327 26,25.327L23.333,25.327C22.229,25.327 21.333,24.432 21.333,23.327L21.333,7.994Z" fill="#FFFFFF"/>
<path d="M12.667,11.327C11.562,11.327 10.667,12.223 10.667,13.327L10.667,23.327C10.667,24.432 11.562,25.327 12.667,25.327L15.333,25.327C16.438,25.327 17.333,24.432 17.333,23.327L17.333,13.327C17.333,12.223 16.438,11.327 15.333,11.327L12.667,11.327Z" fill="#FFFFFF"/>
<path d="M2,15.994C0.895,15.994 0,16.889 0,17.994L0,23.327C0,24.432 0.895,25.327 2,25.327L4.667,25.327C5.771,25.327 6.667,24.432 6.667,23.327L6.667,17.994C6.667,16.889 5.771,15.994 4.667,15.994L2,15.994Z" fill="#FFFFFF"/>
</svg>
