<svg width="168" height="1828" viewBox="0 0 168 1828" fill="none" xmlns="http://www.w3.org/2000/svg" xmlns:xlink="http://www.w3.org/1999/xlink">
<path d="M60,98L108,98L108,1600C108,1611.046 99.046,1620 88,1620L80,1620C68.954,1620 60,1611.046 60,1600Z" fill="#D9D9D9"/>
<circle cx="84" cy="1744" r="84" fill="#FBFBF9" stroke="#C2C2C2" stroke-width="4" stroke-miterlimit="3.999327"/>
<path d="M97.628,1724.028C99.191,1722.466 99.191,1719.934 97.628,1718.372C96.066,1716.809 93.534,1716.809 91.972,1718.372L97.628,1724.028ZM71.6,1744.4L68.772,1741.572C67.21,1743.134 67.21,1745.666 68.772,1747.228L71.6,1744.4ZM91.972,1770.429C93.534,1771.991 96.066,1771.991 97.628,1770.429C99.191,1768.866 99.191,1766.334 97.628,1764.772L91.972,1770.429ZM91.972,1718.372L68.772,1741.572L74.428,1747.228L97.628,1724.028L91.972,1718.372ZM68.772,1747.228L91.972,1770.429L97.628,1764.772L74.428,1741.572L68.772,1747.228Z" transform="rotate(-180 83.2 1744.4)" fill="#999999"/>
<rect  x="0" y="0" width="160" height="404" rx="196" fill="#FBFBF9" stroke="#C2C2C2" stroke-width="4" stroke-miterlimit="3.999327"/>
<path d="M64,200.996L64,190L103.713,190L103.713,200.996L64,200.996ZM64,220.141L64,209.144L103.713,209.144L103.713,220.141L64,220.141Z" fill="#999999"/>
</svg>
