<svg width="636" height="150" viewBox="0 0 636 150" fill="none" xmlns="http://www.w3.org/2000/svg" xmlns:xlink="http://www.w3.org/1999/xlink">
<path d="M62.976,148.254L31.511,104.944L31.511,148.254L-0.139,148.254L-0.139,21.573L31.511,11.29L31.511,86.99L62.791,44.976L101.844,44.976L58.904,96.8L102.214,148.254L62.976,148.254Z" fill="url(#pf_0_3_521)"/>
<path d="M128.907,34.241C123.354,34.241 118.789,32.637 115.211,29.429C111.756,26.097 110.028,22.025 110.028,17.213C110.028,12.277 111.756,8.205 115.211,4.997C118.789,1.666 123.354,0 128.907,0C134.336,0 138.778,1.666 142.233,4.997C145.811,8.205 147.601,12.277 147.601,17.213C147.601,22.025 145.811,26.097 142.233,29.429C138.778,32.637 134.336,34.241 128.907,34.241ZM144.639,44.976L144.639,148.254L112.99,148.254L112.99,55.258L144.639,44.976Z" fill="url(#pf_0_3_521)"/>
<path d="M213.301,149.734C203.183,149.734 194.053,147.575 185.909,143.256C177.889,138.938 171.534,132.768 166.845,124.748C162.28,116.728 159.997,107.35 159.997,96.615C159.997,86.003 162.342,76.687 167.03,68.667C171.719,60.523 178.136,54.292 186.279,49.973C194.423,45.655 203.553,43.495 213.671,43.495C223.789,43.495 232.921,45.655 241.065,49.973C249.209,54.292 255.625,60.523 260.313,68.667C265.003,76.687 267.347,86.003 267.347,96.615C267.347,107.226 264.941,116.604 260.129,124.748C255.439,132.768 248.961,138.938 240.695,143.256C232.551,147.575 223.419,149.734 213.301,149.734ZM213.301,122.342C219.347,122.342 224.469,120.121 228.663,115.679C232.983,111.237 235.141,104.882 235.141,96.615C235.141,88.348 233.043,81.993 228.849,77.551C224.777,73.109 219.717,70.888 213.671,70.888C207.503,70.888 202.381,73.109 198.31,77.551C194.238,81.87 192.202,88.224 192.202,96.615C192.202,104.882 194.176,111.237 198.125,115.679C202.197,120.121 207.255,122.342 213.301,122.342Z" fill="url(#pf_0_3_521)"/>
<path d="M337.843,121.416L348.125,148.254L321.741,148.254C310.265,148.254 301.319,145.477 294.903,139.925C288.487,134.249 285.279,125.056 285.279,112.347L285.279,71.258L272.693,71.258L272.693,44.976L285.279,44.976L285.279,27.516L316.929,19.804L316.929,44.976L337.659,44.976L337.659,71.258L316.929,71.258L316.929,112.717C316.929,115.802 317.669,118.023 319.149,119.38C320.631,120.738 323.097,121.416 326.553,121.416L337.843,121.416Z" fill="url(#pf_0_3_521)"/>
<path d="M347.895,96.43C347.895,85.818 349.869,76.502 353.817,68.482C357.889,60.461 363.379,54.292 370.289,49.973C377.199,45.655 384.911,43.495 393.425,43.495C400.705,43.495 407.061,44.976 412.489,47.937C418.041,50.899 422.299,54.785 425.261,59.598L425.261,52.688L456.909,44.976L456.909,148.254L425.261,148.254L425.261,133.632C422.175,138.444 417.857,142.331 412.305,145.292C406.875,148.254 400.521,149.734 393.241,149.734C384.849,149.734 377.199,147.575 370.289,143.256C363.379,138.814 357.889,132.583 353.817,124.563C349.869,116.419 347.895,107.041 347.895,96.43ZM425.261,96.615C425.261,88.718 423.039,82.487 418.597,77.921C414.279,73.356 408.973,71.073 402.679,71.073C396.387,71.073 391.019,73.356 386.577,77.921C382.259,82.363 380.099,88.533 380.099,96.43C380.099,104.327 382.259,110.62 386.577,115.309C391.019,119.874 396.387,122.157 402.679,122.157C408.973,122.157 414.279,119.874 418.597,115.309C423.039,110.743 425.261,104.512 425.261,96.615Z" fill="url(#pf_0_3_521)"/>
<path d="M510.171,11.29L510.171,148.254L478.521,148.254L478.521,21.573L510.171,11.29Z" fill="url(#pf_0_3_521)"/>
<path d="M594.937,148.254L563.471,104.944L563.471,148.254L531.823,148.254L531.823,21.573L563.471,11.29L563.471,86.99L594.751,44.976L633.805,44.976L590.865,96.8L634.175,148.254L594.937,148.254Z" fill="url(#pf_0_3_521)"/>
<defs>
<linearGradient id="pf_0_3_521" x1="-0.5" y1="0" x2="633.679" y2="149.514" gradientUnits="userSpaceOnUse">
<stop stop-color="#FBFBF9"/>
<stop offset="0.7" stop-color="#B2B2B2"/>
<stop offset="1" stop-color="#DEDEDE"/>
</linearGradient>
<linearGradient id="pf_0_3_521" x1="-0.5" y1="0" x2="633.679" y2="149.514" gradientUnits="userSpaceOnUse">
<stop stop-color="#FBFBF9"/>
<stop offset="0.7" stop-color="#B2B2B2"/>
<stop offset="1" stop-color="#DEDEDE"/>
</linearGradient>
<linearGradient id="pf_0_3_521" x1="-0.5" y1="0" x2="633.679" y2="149.514" gradientUnits="userSpaceOnUse">
<stop stop-color="#FBFBF9"/>
<stop offset="0.7" stop-color="#B2B2B2"/>
<stop offset="1" stop-color="#DEDEDE"/>
</linearGradient>
<linearGradient id="pf_0_3_521" x1="-0.5" y1="0" x2="633.679" y2="149.514" gradientUnits="userSpaceOnUse">
<stop stop-color="#FBFBF9"/>
<stop offset="0.7" stop-color="#B2B2B2"/>
<stop offset="1" stop-color="#DEDEDE"/>
</linearGradient>
<linearGradient id="pf_0_3_521" x1="-0.5" y1="0" x2="633.679" y2="149.514" gradientUnits="userSpaceOnUse">
<stop stop-color="#FBFBF9"/>
<stop offset="0.7" stop-color="#B2B2B2"/>
<stop offset="1" stop-color="#DEDEDE"/>
</linearGradient>
<linearGradient id="pf_0_3_521" x1="-0.5" y1="0" x2="633.679" y2="149.514" gradientUnits="userSpaceOnUse">
<stop stop-color="#FBFBF9"/>
<stop offset="0.7" stop-color="#B2B2B2"/>
<stop offset="1" stop-color="#DEDEDE"/>
</linearGradient>
<linearGradient id="pf_0_3_521" x1="-0.5" y1="0" x2="633.679" y2="149.514" gradientUnits="userSpaceOnUse">
<stop stop-color="#FBFBF9"/>
<stop offset="0.7" stop-color="#B2B2B2"/>
<stop offset="1" stop-color="#DEDEDE"/>
</linearGradient>
</defs>
</svg>
