<svg width="806" height="190" viewBox="0 0 806 190" fill="none" xmlns="http://www.w3.org/2000/svg" xmlns:xlink="http://www.w3.org/1999/xlink">
<path d="M79.603,187.665L39.613,132.619L39.613,187.665L-0.613,187.665L-0.613,26.657L39.613,13.588L39.613,109.801L79.368,56.401L129.004,56.401L74.428,122.268L129.474,187.665L79.603,187.665Z" fill="url(#pf_0_3_28)"/>
<path d="M163.4,42.757C156.343,42.757 150.54,40.719 145.992,36.641C141.601,32.407 139.406,27.232 139.406,21.115C139.406,14.842 141.601,9.667 145.992,5.59C150.54,1.355 156.343,-0.762 163.4,-0.762C170.301,-0.762 175.946,1.355 180.337,5.59C184.885,9.667 187.159,14.842 187.159,21.115C187.159,27.232 184.885,32.407 180.337,36.641C175.946,40.719 170.301,42.757 163.4,42.757ZM183.395,56.401L183.395,187.665L143.17,187.665L143.17,69.47L183.395,56.401Z" fill="url(#pf_0_3_28)"/>
<path d="M270.665,189.547C257.805,189.547 246.199,186.802 235.849,181.313C225.655,175.824 217.579,167.983 211.619,157.789C205.817,147.596 202.915,135.677 202.915,122.033C202.915,108.546 205.895,96.706 211.855,86.512C217.813,76.161 225.969,68.242 236.319,62.753C246.669,57.264 258.275,54.519 271.135,54.519C283.995,54.519 295.599,57.264 305.949,62.753C316.301,68.242 324.455,76.161 330.415,86.512C336.375,96.706 339.353,108.546 339.353,122.033C339.353,135.52 336.295,147.439 330.179,157.789C324.221,167.983 315.987,175.824 305.479,181.313C295.129,186.802 283.523,189.547 270.665,189.547ZM270.665,154.731C278.349,154.731 284.857,151.908 290.189,146.263C295.677,140.617 298.423,132.54 298.423,122.033C298.423,111.526 295.757,103.449 290.425,97.803C285.249,92.158 278.819,89.335 271.135,89.335C263.293,89.335 256.785,92.158 251.609,97.803C246.435,103.292 243.847,111.369 243.847,122.033C243.847,132.54 246.357,140.617 251.375,146.263C256.549,151.908 262.979,154.731 270.665,154.731Z" fill="url(#pf_0_3_28)"/>
<path d="M428.953,153.555L442.021,187.665L408.487,187.665C393.903,187.665 382.533,184.136 374.377,177.079C366.223,169.865 362.145,158.181 362.145,142.028L362.145,89.805L346.149,89.805L346.149,56.401L362.145,56.401L362.145,34.21L402.371,24.409L402.371,56.401L428.717,56.401L428.717,89.805L402.371,89.805L402.371,142.499C402.371,146.419 403.313,149.242 405.193,150.967C407.075,152.693 410.213,153.555 414.603,153.555L428.953,153.555Z" fill="url(#pf_0_3_28)"/>
<path d="M441.727,121.798C441.727,108.311 444.237,96.47 449.255,86.277C454.431,76.083 461.409,68.242 470.191,62.753C478.975,57.264 488.775,54.519 499.597,54.519C508.849,54.519 516.925,56.401 523.827,60.165C530.883,63.929 536.293,68.869 540.057,74.985L540.057,66.203L580.283,56.401L580.283,187.665L540.057,187.665L540.057,169.081C536.137,175.197 530.649,180.137 523.591,183.901C516.691,187.665 508.615,189.547 499.361,189.547C488.697,189.547 478.975,186.802 470.191,181.313C461.409,175.668 454.431,167.748 449.255,157.554C444.237,147.204 441.727,135.285 441.727,121.798ZM540.057,122.033C540.057,111.996 537.235,104.076 531.589,98.274C526.101,92.471 519.357,89.57 511.359,89.57C503.361,89.57 496.539,92.471 490.893,98.274C485.403,103.92 482.659,111.761 482.659,121.798C482.659,131.835 485.403,139.833 490.893,145.792C496.539,151.595 503.361,154.496 511.359,154.496C519.357,154.496 526.101,151.595 531.589,145.792C537.235,139.99 540.057,132.07 540.057,122.033Z" fill="url(#pf_0_3_28)"/>
<path d="M647.977,13.588L647.977,187.665L607.751,187.665L607.751,26.657L647.977,13.588Z" fill="url(#pf_0_3_28)"/>
<path d="M755.711,187.665L715.721,132.619L715.721,187.665L675.495,187.665L675.495,26.657L715.721,13.588L715.721,109.801L755.477,56.401L805.113,56.401L750.537,122.268L805.583,187.665L755.711,187.665Z" fill="url(#pf_0_3_28)"/>
<defs>
<linearGradient id="pf_0_3_28" x1="-1.073" y1="-0.762" x2="804.951" y2="189.266" gradientUnits="userSpaceOnUse">
<stop stop-color="#FBFBF9"/>
<stop offset="0.7" stop-color="#B2B2B2"/>
<stop offset="1" stop-color="#DEDEDE"/>
</linearGradient>
<linearGradient id="pf_0_3_28" x1="-1.073" y1="-0.762" x2="804.951" y2="189.266" gradientUnits="userSpaceOnUse">
<stop stop-color="#FBFBF9"/>
<stop offset="0.7" stop-color="#B2B2B2"/>
<stop offset="1" stop-color="#DEDEDE"/>
</linearGradient>
<linearGradient id="pf_0_3_28" x1="-1.073" y1="-0.762" x2="804.951" y2="189.266" gradientUnits="userSpaceOnUse">
<stop stop-color="#FBFBF9"/>
<stop offset="0.7" stop-color="#B2B2B2"/>
<stop offset="1" stop-color="#DEDEDE"/>
</linearGradient>
<linearGradient id="pf_0_3_28" x1="-1.073" y1="-0.762" x2="804.951" y2="189.266" gradientUnits="userSpaceOnUse">
<stop stop-color="#FBFBF9"/>
<stop offset="0.7" stop-color="#B2B2B2"/>
<stop offset="1" stop-color="#DEDEDE"/>
</linearGradient>
<linearGradient id="pf_0_3_28" x1="-1.073" y1="-0.762" x2="804.951" y2="189.266" gradientUnits="userSpaceOnUse">
<stop stop-color="#FBFBF9"/>
<stop offset="0.7" stop-color="#B2B2B2"/>
<stop offset="1" stop-color="#DEDEDE"/>
</linearGradient>
<linearGradient id="pf_0_3_28" x1="-1.073" y1="-0.762" x2="804.951" y2="189.266" gradientUnits="userSpaceOnUse">
<stop stop-color="#FBFBF9"/>
<stop offset="0.7" stop-color="#B2B2B2"/>
<stop offset="1" stop-color="#DEDEDE"/>
</linearGradient>
<linearGradient id="pf_0_3_28" x1="-1.073" y1="-0.762" x2="804.951" y2="189.266" gradientUnits="userSpaceOnUse">
<stop stop-color="#FBFBF9"/>
<stop offset="0.7" stop-color="#B2B2B2"/>
<stop offset="1" stop-color="#DEDEDE"/>
</linearGradient>
</defs>
</svg>
