<svg width="692" height="164" viewBox="0 0 692 164" fill="none" xmlns="http://www.w3.org/2000/svg" xmlns:xlink="http://www.w3.org/1999/xlink">
<path d="M69.413,161.334L35.173,114.203L35.173,161.334L0.73,161.334L0.73,23.476L35.173,12.286L35.173,94.666L69.212,48.944L111.711,48.944L64.982,105.341L112.114,161.334L69.413,161.334Z" fill="url(#pf_0_3_384)"/>
<path d="M141.162,37.262C135.119,37.262 130.151,35.516 126.257,32.025C122.497,28.4 120.617,23.969 120.617,18.732C120.617,13.361 122.497,8.929 126.257,5.438C130.151,1.813 135.119,0 141.162,0C147.07,0 151.904,1.813 155.664,5.438C159.558,8.929 161.505,13.361 161.505,18.732C161.505,23.969 159.558,28.4 155.664,32.025C151.904,35.516 147.07,37.262 141.162,37.262ZM158.282,48.944L158.282,161.334L123.84,161.334L123.84,60.134L158.282,48.944Z" fill="url(#pf_0_3_384)"/>
<path d="M233.002,162.946C221.992,162.946 212.056,160.596 203.192,155.896C194.465,151.196 187.55,144.483 182.447,135.754C177.479,127.026 174.995,116.821 174.995,105.139C174.995,93.591 177.546,83.453 182.649,74.725C187.751,65.863 194.734,59.082 203.596,54.382C212.458,49.683 222.394,47.333 233.406,47.333C244.416,47.333 254.352,49.683 263.214,54.382C272.078,59.082 279.06,65.863 284.162,74.725C289.264,83.453 291.816,93.591 291.816,105.139C291.816,116.687 289.198,126.892 283.96,135.754C278.858,144.483 271.808,151.196 262.812,155.896C253.95,160.596 244.014,162.946 233.002,162.946ZM233.002,133.136C239.582,133.136 245.154,130.719 249.72,125.885C254.42,121.051 256.77,114.136 256.77,105.139C256.77,96.143 254.486,89.227 249.922,84.393C245.49,79.559 239.984,77.142 233.406,77.142C226.692,77.142 221.118,79.559 216.688,84.393C212.256,89.093 210.042,96.008 210.042,105.139C210.042,114.136 212.19,121.051 216.486,125.885C220.918,130.719 226.422,133.136 233.002,133.136Z" fill="url(#pf_0_3_384)"/>
<path d="M368.532,132.129L379.722,161.334L351.01,161.334C338.522,161.334 328.786,158.313 321.804,152.271C314.822,146.094 311.33,136.09 311.33,122.26L311.33,77.545L297.634,77.545L297.634,48.944L311.33,48.944L311.33,29.944L345.772,21.552L345.772,48.944L368.332,48.944L368.332,77.545L345.772,77.545L345.772,122.662C345.772,126.019 346.578,128.436 348.19,129.913C349.8,131.39 352.486,132.129 356.246,132.129L368.532,132.129Z" fill="url(#pf_0_3_384)"/>
<path d="M379.47,104.938C379.47,93.39 381.618,83.252 385.916,74.524C390.348,65.796 396.322,59.082 403.842,54.382C411.362,49.683 419.754,47.333 429.018,47.333C436.942,47.333 443.856,48.944 449.764,52.167C455.808,55.389 460.44,59.619 463.662,64.856L463.662,57.336L498.104,48.944L498.104,161.334L463.662,161.334L463.662,145.422C460.306,150.659 455.606,154.889 449.564,158.112C443.656,161.334 436.74,162.946 428.818,162.946C419.686,162.946 411.362,160.596 403.842,155.896C396.322,151.062 390.348,144.281 385.916,135.553C381.618,126.691 379.47,116.486 379.47,104.938ZM463.662,105.139C463.662,96.545 461.246,89.764 456.412,84.796C451.712,79.828 445.938,77.344 439.09,77.344C432.242,77.344 426.4,79.828 421.566,84.796C416.866,89.63 414.516,96.344 414.516,104.938C414.516,113.532 416.866,120.38 421.566,125.482C426.4,130.451 432.242,132.935 439.09,132.935C445.938,132.935 451.712,130.451 456.412,125.482C461.246,120.514 463.662,113.733 463.662,105.139Z" fill="url(#pf_0_3_384)"/>
<path d="M556.066,12.286L556.066,161.334L521.624,161.334L521.624,23.476L556.066,12.286Z" fill="url(#pf_0_3_384)"/>
<path d="M648.31,161.334L614.068,114.203L614.068,161.334L579.626,161.334L579.626,23.476L614.068,12.286L614.068,94.666L648.108,48.944L690.606,48.944L643.878,105.341L691.01,161.334L648.31,161.334Z" fill="url(#pf_0_3_384)"/>
<defs>
<linearGradient id="pf_0_3_384" x1="0.337" y1="0" x2="690.47" y2="162.705" gradientUnits="userSpaceOnUse">
<stop stop-color="#FBFBF9"/>
<stop offset="0.7" stop-color="#B2B2B2"/>
<stop offset="1" stop-color="#DEDEDE"/>
</linearGradient>
<linearGradient id="pf_0_3_384" x1="0.337" y1="0" x2="690.47" y2="162.705" gradientUnits="userSpaceOnUse">
<stop stop-color="#FBFBF9"/>
<stop offset="0.7" stop-color="#B2B2B2"/>
<stop offset="1" stop-color="#DEDEDE"/>
</linearGradient>
<linearGradient id="pf_0_3_384" x1="0.337" y1="0" x2="690.47" y2="162.705" gradientUnits="userSpaceOnUse">
<stop stop-color="#FBFBF9"/>
<stop offset="0.7" stop-color="#B2B2B2"/>
<stop offset="1" stop-color="#DEDEDE"/>
</linearGradient>
<linearGradient id="pf_0_3_384" x1="0.337" y1="0" x2="690.47" y2="162.705" gradientUnits="userSpaceOnUse">
<stop stop-color="#FBFBF9"/>
<stop offset="0.7" stop-color="#B2B2B2"/>
<stop offset="1" stop-color="#DEDEDE"/>
</linearGradient>
<linearGradient id="pf_0_3_384" x1="0.337" y1="0" x2="690.47" y2="162.705" gradientUnits="userSpaceOnUse">
<stop stop-color="#FBFBF9"/>
<stop offset="0.7" stop-color="#B2B2B2"/>
<stop offset="1" stop-color="#DEDEDE"/>
</linearGradient>
<linearGradient id="pf_0_3_384" x1="0.337" y1="0" x2="690.47" y2="162.705" gradientUnits="userSpaceOnUse">
<stop stop-color="#FBFBF9"/>
<stop offset="0.7" stop-color="#B2B2B2"/>
<stop offset="1" stop-color="#DEDEDE"/>
</linearGradient>
<linearGradient id="pf_0_3_384" x1="0.337" y1="0" x2="690.47" y2="162.705" gradientUnits="userSpaceOnUse">
<stop stop-color="#FBFBF9"/>
<stop offset="0.7" stop-color="#B2B2B2"/>
<stop offset="1" stop-color="#DEDEDE"/>
</linearGradient>
</defs>
</svg>
