<svg width="358" height="148" viewBox="0 0 358 148" fill="none" xmlns="http://www.w3.org/2000/svg" xmlns:xlink="http://www.w3.org/1999/xlink">
<path d="M6.932,9.376L6.932,2.051C4.989,2.051 3.126,2.822 1.752,4.196C0.378,5.57 -0.394,7.433 -0.394,9.376L6.932,9.376ZM14.257,147.504L14.257,9.376L-0.394,9.376L-0.394,147.504L14.257,147.504ZM6.932,16.701L145.06,16.701L145.06,2.051L6.932,2.051L6.932,16.701ZM6.932,9.376C0.774,13.343 0.775,13.345 0.777,13.348C0.778,13.35 0.78,13.353 0.782,13.356C0.785,13.362 0.79,13.369 0.796,13.379C0.808,13.397 0.825,13.423 0.846,13.455C0.888,13.52 0.948,13.611 1.026,13.729C1.18,13.965 1.406,14.305 1.7,14.742C2.289,15.618 3.155,16.884 4.285,18.485C6.544,21.687 9.863,26.233 14.148,31.675C22.709,42.548 35.171,57.059 50.775,71.592C81.764,100.454 126.234,130.412 177.857,130.412L177.857,115.761C131.808,115.761 90.815,88.863 60.76,60.871C45.842,46.976 33.885,33.059 25.659,22.612C21.551,17.393 18.384,13.056 16.256,10.039C15.192,8.531 14.388,7.354 13.856,6.564C13.59,6.169 13.392,5.87 13.264,5.675C13.2,5.578 13.153,5.506 13.124,5.462C13.11,5.439 13.099,5.424 13.094,5.415C13.091,5.41 13.089,5.408 13.088,5.407C13.088,5.406 13.088,5.407 13.088,5.406C13.089,5.407 13.09,5.409 6.932,9.376ZM177.857,130.412C261.264,130.412 306.272,98.934 330.18,66.378C342.006,50.271 348.462,34.183 351.968,22.117C353.724,16.077 354.746,11.017 355.334,7.427C355.628,5.63 355.814,4.198 355.928,3.191C355.984,2.687 356.024,2.289 356.05,2.005C356.062,1.862 356.072,1.749 356.078,1.664C356.082,1.622 356.084,1.587 356.086,1.559C356.088,1.545 356.088,1.533 356.09,1.523C356.09,1.518 356.09,1.512 356.09,1.509C356.09,1.504 356.09,1.499 348.782,0.997C341.474,0.496 341.474,0.491 341.476,0.487C341.476,0.487 341.476,0.483 341.476,0.482C341.476,0.479 341.476,0.479 341.476,0.48C341.476,0.482 341.474,0.491 341.474,0.507C341.47,0.54 341.466,0.601 341.458,0.69C341.442,0.867 341.414,1.155 341.37,1.546C341.282,2.327 341.128,3.518 340.876,5.06C340.37,8.146 339.47,12.624 337.9,18.03C334.754,28.856 328.956,43.29 318.37,57.706C297.452,86.194 256.998,115.761 177.857,115.761L177.857,130.412Z" fill="#FFFFFF"/>
</svg>
