<svg width="34" height="26" viewBox="0 0 34 26" fill="none" xmlns="http://www.w3.org/2000/svg" xmlns:xlink="http://www.w3.org/1999/xlink">
<path d="M16.328,5.783C21.261,5.784 26.005,7.699 29.58,11.133C29.85,11.399 30.28,11.395 30.545,11.126L33.119,8.502C33.253,8.365 33.328,8.18 33.327,7.987C33.325,7.795 33.248,7.611 33.113,7.476C23.729,-1.611 8.925,-1.611 -0.459,7.476C-0.595,7.611 -0.672,7.795 -0.673,7.987C-0.675,8.18 -0.6,8.365 -0.466,8.502L2.109,11.126C2.374,11.396 2.804,11.399 3.073,11.133C6.649,7.699 11.394,5.783 16.328,5.783ZM16.328,14.322C19.038,14.321 21.652,15.339 23.661,17.178C23.933,17.439 24.361,17.433 24.626,17.165L27.196,14.54C27.331,14.403 27.407,14.216 27.405,14.022C27.403,13.828 27.324,13.643 27.186,13.508C21.068,7.757 11.593,7.757 5.475,13.508C5.337,13.643 5.258,13.828 5.256,14.022C5.254,14.216 5.329,14.403 5.465,14.54L8.035,17.165C8.3,17.433 8.728,17.439 9,17.178C11.007,15.341 13.619,14.323 16.328,14.322ZM21.477,20.066C21.481,20.261 21.405,20.448 21.268,20.585L16.821,25.119C16.691,25.252 16.513,25.327 16.328,25.327C16.142,25.327 15.964,25.252 15.834,25.119L11.387,20.585C11.249,20.448 11.174,20.261 11.178,20.066C11.182,19.871 11.265,19.687 11.408,19.557C14.248,17.13 18.407,17.13 21.247,19.557C21.39,19.687 21.473,19.871 21.477,20.066Z" clip-rule="evenodd" fill-rule="evenodd" fill="#FFFFFF"/>
</svg>
